PathFileType	4	(X/Y/Z)	RBDS020\RBDS020runT35.trc
DataRate	CameraRate	NumFrames	NumMarkers	Units	OrigDataRate	OrigDataStartFrame	OrigNumFrames
150.000000	150.000000	6	33	mm	150.000000	3375	4500
Frame#	Time	L.ASIS			L.Heel.Bottom			L.Heel.Lateral			L.Heel.Top			L.Iliac.Crest			L.MT1			L.MT5			L.PSIS			L.Shank.Bottom.Lateral			L.Shank.Bottom.Medial			L.Shank.Top.Lateral			L.Shank.Top.Medial			L.Thigh.Bottom.Lateral			L.Thigh.Bottom.Medial			L.Thigh.Top.Lateral			L.Thigh.Top.Medial			R.ASIS			R.ASY			R.Heel.Bottom			R.Heel.Lateral			R.Heel.Top			R.Iliac.Crest			R.MT1			R.MT5			R.PSIS			R.Shank.Bottom.Lateral			R.Shank.Bottom.Medial			R.Shank.Top.Lateral			R.Shank.Top.Medial			R.Thigh.Bottom.Lateral			R.Thigh.Bottom.Medial			R.Thigh.Top.Lateral			R.Thigh.Top.Medial			
		X1	Y1	Z1	X2	Y2	Z2	X3	Y3	Z3	X4	Y4	Z4	X5	Y5	Z5	X6	Y6	Z6	X7	Y7	Z7	X8	Y8	Z8	X9	Y9	Z9	X10	Y10	Z10	X11	Y11	Z11	X12	Y12	Z12	X13	Y13	Z13	X14	Y14	Z14	X15	Y15	Z15	X16	Y16	Z16	X17	Y17	Z17	X18	Y18	Z18	X19	Y19	Z19	X20	Y20	Z20	X21	Y21	Z21	X22	Y22	Z22	X23	Y23	Z23	X24	Y24	Z24	X25	Y25	Z25	X26	Y26	Z26	X27	Y27	Z27	X28	Y28	Z28	X29	Y29	Z29	X30	Y30	Z30	X31	Y31	Z31	X32	Y32	Z32	X33	Y33	Z33	

3376	22.5	2211.891472137578	979.1600245477839	905.8899075160814	1775.714344615888	394.1570485374815	980.94373141119	1798.880719148531	381.606353151998	933.8632645432363	1823.813186439741	395.222388391918	977.9790897913098	2150.896428122358	1018.133176106744	869.6253745617754	1840.540630822993	182.2463307106568	976.3645407504723	1814.671020492236	229.0873183145354	880.0971743468779	2048.121363659007	1009.006710755123	967.7504259431134	1921.293331048093	367.9529508532831	899.37976294637	1913.840038643778	403.5803348881806	941.5462839525989	1992.102116046792	402.9227140974643	883.7925268945941	1986.310043196323	436.7724397725557	924.9771801217812	2211.546834440724	633.3738392215342	839.3510076589299	2148.679000203539	612.4169333759741	869.9753235018269	2175.158128977838	736.6145705711276	836.373753541881	2115.82007667234	716.9476150832443	867.9420255505262	2204.450716840001	980.2360407859501	1141.156336097293	2159.019476903551	79.18532379773337	1065.812193405225	1970.619238572936	29.22729614385003	1049.842952749434	1994.462004796099	45.80758897237143	1095.313191889744	1979.442433914709	71.47631554377742	1050.159709196851	2143.317277637177	1013.000844652024	1173.0834254294	2184.62245096251	46.63552477902045	1023.985704179443	2157.028340378309	39.04190999718635	1131.529969374317	2045.400919722817	1012.297676837875	1063.478757641405	2094.537907808042	169.9645881873877	1116.520497155422	2055.094984803748	195.1483386890973	1094.095887388428	2129.210980954724	245.321425301736	1135.664290448821	2085.090553086706	267.5445148684053	1115.409954828861	2178.931096841148	599.2887456465758	1167.350274589586	2125.145650862867	585.5098987657192	1122.26781275059	2140.384281952327	702.4499166344655	1179.868974200434	2090.140758913359	688.9689649592236	1135.930724867736	
3377	22.50666666666667	2210.776930484652	981.4321342220505	906.3058228056083	1789.609835274991	384.3989137975012	977.510479251998	1814.232055043957	372.2676696328514	930.9269194793562	1837.653329033983	387.7433112630163	975.219143321173	2148.769269219082	1020.030188924168	869.672198551716	1864.724419337496	175.8230844357502	977.1735049612029	1838.286241770237	219.8766997135781	879.7137988090747	2047.296150055801	1011.052311107403	968.3561742369153	1938.304784135681	363.3879967311267	898.5251260267355	1929.264379558631	399.1957961418677	940.2169645866701	2008.18774603522	400.3610334701816	883.3322452687635	2000.839710677708	434.4310618193752	924.1320108019814	2219.524264790616	637.5197979971596	839.938030813998	2157.157381915581	614.4282245871183	870.1035813814452	2179.72108775224	739.4932826679639	836.7485265846514	2120.69110129549	717.7980949812941	867.6096993701651	2204.141276007765	980.1243613398657	1141.1406390927	2135.422089779112	79.42547084424399	1066.274864334807	1946.890316496359	29.90105739175293	1050.135164895507	1970.762449818769	46.24941213698291	1095.739893758162	1955.768330889675	72.1647120647166	1050.693704614471	2143.839849782651	1013.717399919687	1173.035690568963	2160.829900782371	46.78845094681567	1024.243438918856	2133.282699383037	38.92263219470389	1131.663125837826	2045.29953230591	1014.130915625401	1064.212813848123	2072.615945899965	170.2296176228695	1116.850183256632	2033.724181625433	196.0779584537337	1094.347511083453	2108.914895331355	244.8547167835109	1135.640923456741	2065.122762316907	267.8046969595127	1115.568350702309	2168.012459776336	598.4500760733451	1167.052204898947	2113.519379201958	586.4066478957203	1122.382790730946	2132.905044540984	702.8190847097134	1179.759825234092	2082.018641505107	691.0476615505261	1136.024725539743	
3378	22.51333333333334	2210.012298300142	984.4257019762205	906.8767483631482	1803.823171767649	373.2640082155435	974.4502785947989	1829.81638850683	361.8014011093167	928.3147042911131	1851.663579528839	379.0876635222778	972.7213156809026	2147.362080780682	1022.909764136416	869.8180932406224	1889.711127814192	168.8500470096829	977.9833424147653	1862.487816336262	210.1395083309837	879.4597052981327	2046.881761658172	1013.796587245217	968.987960567099	1955.283234075991	358.2940726994038	897.8171529654444	1944.48161437607	394.1656890692289	939.0424486690856	2023.973052908183	397.5931273656092	882.9905327820592	2014.896948863493	431.780817607363	923.4098051160335	2227.193930111717	642.5067203905016	840.5210832905026	2165.409367723218	617.4033118971228	870.2920885770931	2184.147802577612	743.1442041564917	837.0005076890593	2125.492960776571	719.5284268746935	867.1878674430365	2204.079707356494	980.3692409508894	1141.119582934006	2111.963285010689	79.66313085349617	1066.790928675894	1923.097907082685	31.16704323636162	1050.477240733342	1947.07142703255	47.1514702658928	1096.219137209709	1932.18165009373	73.42040805703482	1051.305581759246	2145.037591292786	1015.175208385318	1172.966474166859	2136.96388795713	46.80781403670811	1024.431248148945	2109.445695651871	38.68129272964561	1131.771487305508	2045.575558209191	1016.517058766796	1065.031833936628	2050.455690665512	171.0524573756804	1117.245625112075	2012.095518477372	197.4259954215657	1094.601014367568	2088.137251873852	245.0184519318978	1135.721261583045	2044.666965059257	268.5693035761644	1115.693959287839	2156.569483024417	598.2981734923559	1166.774118980722	2101.37278342252	588.1172847592827	1122.572389386021	2125.1601806446	703.8320705732464	1179.654228543985	2073.622908822604	693.8866863747132	1136.177859768851	
3379	22.52	2209.590391264489	988.0590000677472	907.5885312819698	1818.48332432045	360.7975893145726	971.8673900989298	1845.720668731589	350.27393181607	926.1211255515942	1865.945250973678	369.2633352033189	970.5881070183312	2146.665867170017	1026.655040263644	870.0409350499369	1915.458152694532	161.4344124980129	978.7339454969535	1887.239106838774	200.0501199099577	879.3129402950869	2046.84098463448	1017.121436237365	969.603933793702	1972.229119211489	352.6832839621104	897.2893114433855	1959.524062206671	388.4733198633908	938.0710344804003	2039.438386193898	394.5878450442525	882.7894551882291	2028.497454569375	428.7586846534026	922.8407813877734	2234.546869723154	648.2431971305721	841.0700991483408	2173.399033446121	621.2572276568504	870.4849329645222	2188.45151896246	747.4989366509327	837.1186353495051	2130.225062688578	722.0764413920233	866.6574921292087	2204.240275940889	980.973495849928	1141.10993388187	2088.726093030186	79.93036704278759	1067.358221687913	1899.326143901769	33.22672236830305	1050.865320379308	1923.476191454306	48.69084444522642	1096.742768414001	1908.795994258259	75.4283440722453	1051.990233887328	2146.835678644985	1017.290078404693	1172.848757057548	2113.058400951334	46.73608623950176	1024.551490909443	2085.535581811078	38.3786449664648	1131.851144964576	2046.165359860356	1019.34305287365	1065.864999165319	2028.213553147713	172.5848658200333	1117.699417705296	1990.359218096077	199.3618368533247	1094.859127233942	2067.05762971132	245.9725943770455	1135.910007161881	2023.909979378909	270.0189522678218	1115.785762096804	2144.765096885812	598.9328388166859	1166.528216693757	2088.919495320109	590.7354117842099	1122.80139048901	2117.266138971821	705.5422916608562	1179.559015831981	2065.114212681687	697.5274722973145	1136.366594888892	
3380	22.52666666666667	2209.491914758465	992.2327708815644	908.4110284968909	1833.719642484832	347.0765079054588	969.8340717836094	1862.038234561066	337.7684012152039	924.4128459735205	1880.605530913094	358.3076498967472	968.9007791281618	2146.61944030072	1031.125547353792	870.312295738629	1941.940782441044	153.6924292606019	979.3739566444111	1912.525784582101	189.770176219046	879.2457758203041	2047.131173622425	1020.910824545166	970.1580005725846	1989.163832918455	346.5740829647576	896.9679837580233	1974.448038169755	382.113448658659	937.3413684144538	2054.587969500861	391.3131356558732	882.7455135878694	2041.683647405267	425.3063725581712	922.4482945209528	2241.581103165921	654.6218861283851	841.5643674288513	2181.094529802579	625.8861481100502	870.634709543628	2192.648155090053	752.4757649030078	837.1031334159734	2134.886026624108	725.3647718170384	866.0084504287249	2204.598025626713	981.9438907517838	1141.120766210875	2065.802280740537	80.25250919985902	1067.984054389003	1875.689103619163	36.26884832222764	1051.292880465061	1900.085900109133	51.03197327230016	1097.302477628604	1885.749200643427	78.35708450609752	1052.741659764601	2149.125834703815	1019.965893885857	1172.65163818416	2089.167109285259	46.61557954502398	1024.618550815302	2061.584752758009	38.07534758129025	1131.907234458964	2047.00647721976	1022.510815431872	1066.637662550268	2006.05704566042	174.9525025394297	1118.215582654555	1968.682410743495	202.0254877816481	1095.12843094422	2045.862118735737	247.8492347154097	1136.214639620247	2003.048513238962	272.2994799150646	1115.844660560394	2132.752807696547	600.4362389226083	1166.321716460084	2076.362067558792	594.3348821232875	1123.028567170719	2109.333035641017	707.9934195545591	1179.475385304554	2056.6478012788	702.0007609340745	1136.556445936411	
3381	22.53333333333333	2209.690172693944	996.835255739666	909.3019656193296	1849.658263877216	332.2082043996402	968.3905513945069	1878.864926494016	324.3837835742209	923.2271537400489	1895.754843742847	346.2880991510483	967.7148158146701	2147.123625407247	1036.16862485686	870.6007223353859	1969.147345078253	145.7474940143183	979.8644071022781	1938.349371240889	179.4441205795401	879.2292663630772	2047.711197962822	1025.060071944555	970.6057465181001	2006.127305962091	339.9924782621542	896.8699156481468	1989.330891102803	375.0942556038559	936.8796665714987	2069.448437373171	387.7392673604502	882.8671752085311	2054.521969480928	421.374511908499	922.247111140532	2248.293411547345	661.5191455067146	841.9949299925029	2188.46252080618	631.1693935744773	870.7102490267539	2196.749789591393	757.9792763811231	836.9658855340374	2139.468528733987	729.3026521376997	865.2438536399554	2205.131937522809	983.285611637629	1141.152164435973	2043.286294483503	80.64370744032932	1068.680095158968	1852.326420935022	40.45464451467231	1051.752289669092	1877.027622082393	54.31531025589945	1097.890148602398	1863.197733526999	82.34464564091543	1053.552630676831	2151.78303694622	1023.102363036716	1172.345863366731	2065.36245153348	46.48159292492981	1024.655406241828	2037.640925189149	37.82837472584213	1131.952149586156	2048.045427550299	1025.944583789328	1067.280799909737	1984.159191840938	178.2426614284223	1118.807098658712	1947.243079263438	205.5143482914376	1095.415817576719	2024.737655819704	250.7411716283829	1136.642910116952	1982.281501102198	275.5099013773378	1115.871463195834	2120.672920163938	602.8662849918013	1166.158340480198	2063.884830230096	598.9596975967004	1123.212347659301	2101.459705391138	711.214602448568	1179.400285751548	2048.365866555813	707.3187264152306	1136.706151986418	
